# xmcd CD database file
# Generated: Fri Oct 11 14:03:30 2002 by KSCD
# 
# Track frame offsets:
#       150
#       8751
#       20646
#       29720
#       47358
#       66427
#       82569
#       99544
#       113941
#       128625
#       141972
#       166858
#       190649
#       208037
#       233192
#       251711
#       266540
#       297771
#
# Disc length: 4290 seconds
#
# Revision: 3
# Processed by: cddbd v1.4PL0 Copyright (c) Steve Scherf et al.
# Submitted via: Kscd 1.3.3
#
DISCID=f410c012
DTITLE=Jack Johnson - Bonnaroo
DYEAR=1900
DGENRE=
TTITLE0=Crowd
TTITLE1=On And On
TTITLE2=Gone
TTITLE3=3 Is The Magic Number
TTITLE4=Posters
TTITLE5=Meddleman
TTITLE6=Fortunate Fool
TTITLE7=Sexi Plexi
TTITLE8=Jam
TTITLE9=Rodeo Clowns
TTITLE10=Haleiwa
TTITLE11=Bubbletoes
TTITLE12=It's All Understood
TTITLE13=Who Do You Love Medley
TTITLE14=Inaudible Melodies
TTITLE15=Mudfootball
TTITLE16=Who Knows
TTITLE17=Flake
EXTD=
EXTT0=
EXTT1=
EXTT2=
EXTT3=
EXTT4=
EXTT5=
EXTT6=
EXTT7=
EXTT8=
EXTT9=
EXTT10=
EXTT11=
EXTT12=
EXTT13=
EXTT14=
EXTT15=
EXTT16=
EXTT17=
PLAYORDER=
